<?xml version="1.0" standalone="no"?>
<!-- Generator: Adobe Fireworks 10, Export SVG Extension by Aaron Beall (http://fireworks.abeall.com) . Version: 0.6.1  -->
<!DOCTYPE svg PUBLIC "-//W3C//DTD SVG 1.1//EN" "http://www.w3.org/Graphics/SVG/1.1/DTD/svg11.dtd">
<svg id="campana-icon-P%E1gina%201" viewBox="0 0 22 22" style="background-color:#ffffff00" version="1.1"
	xmlns="http://www.w3.org/2000/svg" xmlns:xlink="http://www.w3.org/1999/xlink" xml:space="preserve"
	x="0px" y="0px" width="22px" height="22px"
>
	<g id="Capa%201">
		<g>
			<path d="M 4.5 16.1111 L 17.5 16.1111 L 17.5 15.2222 C 17.5 15.2222 14.1726 14.5556 14.9464 11 C 15.7202 7.4444 14.1726 4.7037 11 4.7778 C 7.8274 4.8519 6.4345 7.5926 6.8214 9.4444 C 7.2083 11.2963 7.8274 14.1111 4.5 15 L 4.5 16.1111 Z" fill="#ffffff"/>
			<path d="M 11 5 L 12.1607 3 L 9.8393 3 L 11 5 Z" fill="#ffffff"/>
			<path d="M 9.1429 17.2222 C 9.1429 18.2041 9.9743 19 11 19 C 12.0257 19 12.8571 18.2041 12.8571 17.2222 C 12.8571 17.0688 12.8373 16.9198 12.7991 16.7778 L 9.2009 16.7778 C 9.1627 16.9198 9.1429 17.0688 9.1429 17.2222 Z" fill="#ffffff"/>
		</g>
	</g>
</svg>