<?xml version="1.0" standalone="no"?>
<!-- Generator: Adobe Fireworks 10, Export SVG Extension by Aaron Beall (http://fireworks.abeall.com) . Version: 0.6.1  -->
<!DOCTYPE svg PUBLIC "-//W3C//DTD SVG 1.1//EN" "http://www.w3.org/Graphics/SVG/1.1/DTD/svg11.dtd">
<svg id="Untitled-P%E1gina%201" viewBox="0 0 121 121" style="background-color:#ffffff00" version="1.1"
	xmlns="http://www.w3.org/2000/svg" xmlns:xlink="http://www.w3.org/1999/xlink" xml:space="preserve"
	x="0px" y="0px" width="121px" height="121px"
>
	<g id="Capa%201">
		<path id="Elipse" d="M 1 60.5 C 1 27.6387 27.6387 1 60.5 1 C 93.3613 1 120 27.6387 120 60.5 C 120 93.3614 93.3613 120 60.5 120 C 27.6387 120 1 93.3614 1 60.5 Z" stroke="#00680a" stroke-width="1" fill="#268b1e"/>
		<g>
			<path d="M 60 10 L 61.0422 13.6176 L 65 13.4377 L 61.6864 15.4937 L 63.0902 19 L 60 16.6531 L 56.9098 19 L 58.3136 15.4937 L 55 13.4377 L 58.9578 13.6176 L 60 10 Z" fill="#ffffff"/>
		</g>
		<g>
			<path d="M 40 14 L 41.0422 17.6176 L 45 17.4377 L 41.6864 19.4937 L 43.0902 23 L 40 20.6531 L 36.9098 23 L 38.3136 19.4937 L 35 17.4377 L 38.9578 17.6176 L 40 14 Z" fill="#ffffff"/>
		</g>
		<g>
			<path d="M 24 26 L 25.0422 29.6176 L 29 29.4377 L 25.6864 31.4937 L 27.0902 35 L 24 32.6531 L 20.9098 35 L 22.3136 31.4937 L 19 29.4377 L 22.9578 29.6176 L 24 26 Z" fill="#ffffff"/>
		</g>
		<g>
			<path d="M 80 14 L 81.0422 17.6176 L 85 17.4377 L 81.6864 19.4937 L 83.0902 23 L 80 20.6531 L 76.9098 23 L 78.3136 19.4937 L 75 17.4377 L 78.9578 17.6176 L 80 14 Z" fill="#ffffff"/>
		</g>
		<g>
			<path d="M 97 27 L 98.0422 30.6176 L 102 30.4377 L 98.6864 32.4937 L 100.0902 36 L 97 33.6531 L 93.9098 36 L 95.3136 32.4937 L 92 30.4377 L 95.9578 30.6176 L 97 27 Z" fill="#ffffff"/>
		</g>
		<g>
			<path d="M 32.7697 45.7971 C 32.7697 49.4955 34.6208 52.7593 37.4429 54.7051 C 29.0725 57.3439 23 65.1996 23 74.48 L 64.25 74.48 C 64.25 65.1443 58.1051 57.2511 49.6573 54.6593 C 52.4414 52.7082 54.2632 49.4661 54.2632 45.7971 C 54.2632 39.8339 49.4518 35 43.5164 35 C 37.5812 35 32.7697 39.8339 32.7697 45.7971 Z" stroke="#268b1e" stroke-width="2" fill="#ffffff"/>
			<path d="M 66.5197 46.7371 C 66.5197 50.4355 68.3708 53.6993 71.1929 55.6451 C 62.8225 58.2839 56.75 66.1396 56.75 75.42 L 98 75.42 C 98 66.0843 91.8551 58.1911 83.4073 55.5993 C 86.1914 53.6482 88.0132 50.4061 88.0132 46.7371 C 88.0132 40.7739 83.2018 35.94 77.2664 35.94 C 71.3312 35.94 66.5197 40.7739 66.5197 46.7371 Z" stroke="#268b1e" stroke-width="2" fill="#ffffff"/>
			<path d="M 51.5197 53.317 C 51.5197 57.0155 53.3708 60.2793 56.1929 62.2251 C 47.8225 64.864 41.75 72.7196 41.75 82 L 83 82 C 83 72.6643 76.8551 64.7711 68.4073 62.1793 C 71.1914 60.2282 73.0132 56.9861 73.0132 53.317 C 73.0132 47.3539 68.2018 42.52 62.2664 42.52 C 56.3312 42.52 51.5197 47.3539 51.5197 53.317 Z" stroke="#268b1e" stroke-width="2" fill="#ffffff"/>
		</g>
		<path d="M 34 78.1711 L 55.5625 91.25 L 109 38 L 54.625 109 L 34 78.1711 Z" stroke="#268b1e" stroke-width="2" fill="#ffffff"/>
	</g>
</svg>